<?xml version="1.0" standalone="no"?><svg xmlns="http://www.w3.org/2000/svg" viewBox="0 0 1440 320"><path fill="#f3f4f5" fill-opacity="1" d="M0,192L21.8,181.3C43.6,171,87,149,131,138.7C174.5,128,218,128,262,144C305.5,160,349,192,393,186.7C436.4,181,480,139,524,149.3C567.3,160,611,224,655,213.3C698.2,203,742,117,785,106.7C829.1,96,873,160,916,181.3C960,203,1004,181,1047,160C1090.9,139,1135,117,1178,90.7C1221.8,64,1265,32,1309,32C1352.7,32,1396,64,1418,80L1440,96L1440,0L1418.2,0C1396.4,0,1353,0,1309,0C1265.5,0,1222,0,1178,0C1134.5,0,1091,0,1047,0C1003.6,0,960,0,916,0C872.7,0,829,0,785,0C741.8,0,698,0,655,0C610.9,0,567,0,524,0C480,0,436,0,393,0C349.1,0,305,0,262,0C218.2,0,175,0,131,0C87.3,0,44,0,22,0L0,0Z"></path></svg>