<?xml version="1.0" encoding="utf-8"?>
<!-- Generator: Adobe Illustrator 24.0.0, SVG Export Plug-In . SVG Version: 6.00 Build 0)  -->
<svg version="1.1" id="Capa_1" xmlns="http://www.w3.org/2000/svg" xmlns:xlink="http://www.w3.org/1999/xlink" x="0px" y="0px"
	 viewBox="0 0 1440 320" style="enable-background:new 0 0 1440 320;" xml:space="preserve">
<style type="text/css">
	.st0{fill:#F9FAFB;}
</style>
<path class="st0" d="M0,192l21.8-10.7C43.6,171,87,149,131,138.7c43.5-10.7,87-10.7,131,5.3c43.5,16,87,48,131,42.7
	c43.4-5.7,87-47.7,131-37.4c43.3,10.7,87,74.7,131,64c43.2-10.3,87-96.3,130-106.6c44.1-10.7,88,53.3,131,74.6
	c44,21.7,88-0.3,131-21.3c43.9-21,88-43,131-69.3C1221.8,64,1265,32,1309,32c43.7,0,87,32,109,48l22,16V0h-21.8
	c-21.8,0-65.2,0-109.2,0c-43.5,0-87,0-131,0c-43.5,0-87,0-131,0c-43.4,0-87,0-131,0c-43.3,0-87,0-131,0c-43.2,0-87,0-130,0
	c-44.1,0-88,0-131,0c-44,0-88,0-131,0c-43.9,0-88,0-131,0c-43.8,0-87,0-131,0C87.3,0,44,0,22,0H0V192z"/>
</svg>
