<svg xmlns="http://www.w3.org/2000/svg" viewBox="0 0 202.57 61.77"><defs><style>.cls-1{fill:#e2e8f0;}.cls-2{fill:#94a3b8;}</style></defs><title>Logo-K-light-mode2Recurso 3</title><g id="Capa_2" data-name="Capa 2"><g id="Capa_1-2" data-name="Capa 1"><polygon class="cls-1" points="36.67 33.43 60.4 61.68 52.32 61.68 32.22 37.75 28.44 33.24 21.03 40.65 24.79 44.95 39.4 61.68 31.19 61.68 20.34 49.26 16.64 45.03 0 61.68 0 0.04 13.96 0.04 13.96 6.22 6.18 6.22 6.18 46.75 46.72 6.22 33.98 6.22 13.96 27.13 13.96 18.21 31.35 0.04 61.64 0.04 32.83 28.85 36.67 33.43"/><polygon class="cls-2" points="21.03 40.65 24.79 44.95 20.34 49.26 16.64 45.03 21.03 40.65"/><polygon class="cls-2" points="36.67 33.43 32.22 37.75 28.44 33.24 32.83 28.85 36.67 33.43"/><polygon class="cls-2" points="55.46 6.22 50.01 11.67 41.27 11.67 46.72 6.22 55.46 6.22"/><path class="cls-1" d="M87.75,32.36,76.87,18.07V32.36H69V0h7.88V14.2L87.65,0h9.27L84.38,15.86l13,16.5Z"/><path class="cls-1" d="M109,6.31v6.55h10.56v6.08H109V26h11.94v6.32H101.11V0h19.82V6.31Z"/><path class="cls-1" d="M156.42,0,144.94,32.36h-9.86L123.6,0H132l8,24.43L148.08,0Z"/><path class="cls-1" d="M167.57,0V32.36h-7.88V0Z"/><path class="cls-1" d="M202.23,32.36h-7.88l-13.18-20v20h-7.88V0h7.88l13.18,20.05V0h7.88Z"/><path class="cls-1" d="M71.59,43.13V50H79.1v2.21H71.59v7.1H80v2.22H68.9V40.91H80v2.22Z"/><path class="cls-1" d="M87,61a6,6,0,0,1-2.53-2,5.17,5.17,0,0,1-1-3h2.87a3.78,3.78,0,0,0,1.2,2.44,4.3,4.3,0,0,0,3.06,1,4.48,4.48,0,0,0,3-1,3.11,3.11,0,0,0,1.11-2.47,2.81,2.81,0,0,0-.65-1.92A4.12,4.12,0,0,0,92.47,53c-.65-.25-1.53-.53-2.63-.83a23.39,23.39,0,0,1-3.27-1.06,5.27,5.27,0,0,1-2.1-1.67,4.92,4.92,0,0,1-.87-3.06,5.24,5.24,0,0,1,.86-3,5.51,5.51,0,0,1,2.41-2,8.35,8.35,0,0,1,3.56-.71,7.45,7.45,0,0,1,4.75,1.45A5.32,5.32,0,0,1,97.26,46h-3a3.19,3.19,0,0,0-1.25-2.08,4.4,4.4,0,0,0-2.89-.9,4.22,4.22,0,0,0-2.76.87,3,3,0,0,0-1.06,2.44A2.6,2.6,0,0,0,87,48.13a3.91,3.91,0,0,0,1.56,1.08,26,26,0,0,0,2.62.84,25.63,25.63,0,0,1,3.28,1.11,5.5,5.5,0,0,1,2.13,1.69,4.85,4.85,0,0,1,.89,3.09,5.36,5.36,0,0,1-.8,2.84,5.84,5.84,0,0,1-2.36,2.16,7.86,7.86,0,0,1-3.7.83A8.68,8.68,0,0,1,87,61Z"/><path class="cls-1" d="M113.46,51.25c-1.17,1.14-3,1.7-5.37,1.7h-4v8.61h-2.69V40.94h6.65a7.56,7.56,0,0,1,5.31,1.69,6.08,6.08,0,0,1,.06,8.62Zm-2.06-1.49A3.59,3.59,0,0,0,112.47,47q0-3.82-4.38-3.82h-4v7.58h4A4.78,4.78,0,0,0,111.4,49.76Z"/><path class="cls-1" d="M121.25,40.94V61.56h-2.69V40.94Z"/><path class="cls-1" d="M142.05,61.56h-2.69L128.53,45.14V61.56h-2.69V40.91h2.69L139.36,57.3V40.91h2.69Z"/><path class="cls-1" d="M150.74,60.42A9.9,9.9,0,0,1,147,56.67a11.45,11.45,0,0,1,0-10.86,9.93,9.93,0,0,1,3.74-3.76,11,11,0,0,1,10.51,0A9.83,9.83,0,0,1,165,45.79a11.58,11.58,0,0,1,0,10.89,9.69,9.69,0,0,1-3.72,3.74,10.9,10.9,0,0,1-10.51,0Zm9.13-2a7.11,7.11,0,0,0,2.72-2.87,10,10,0,0,0,0-8.66,7.1,7.1,0,0,0-2.71-2.85,8,8,0,0,0-7.8,0,7.1,7.1,0,0,0-2.71,2.85,10,10,0,0,0,0,8.66,7.11,7.11,0,0,0,2.72,2.87,8.07,8.07,0,0,0,7.78,0Z"/><path class="cls-1" d="M172.16,59.22h10.06v2.34H169V59.43l10-16.15h-9.88V40.94h13.08v2.13Z"/><path class="cls-1" d="M198.07,57h-9l-1.66,4.58h-2.84L192,41.06h3.1l7.43,20.5h-2.84Zm-.77-2.19-3.72-10.41-3.73,10.41Z"/></g></g></svg>