<svg xmlns="http://www.w3.org/2000/svg" viewBox="0 0 202.57 61.77"><defs><style>.cls-1{fill:#0f172a}</style></defs><g id="Capa_2" data-name="Capa 2"><g id="Capa_1-2" data-name="Capa 1"><path class="cls-1" d="M36.67 33.43L60.4 61.68h-8.08l-20.1-23.93-3.78-4.51-7.41 7.41 3.76 4.3L39.4 61.68h-8.21L20.34 49.26l-3.7-4.23L0 61.68V.04h13.96v6.18H6.18v40.53L46.72 6.22H33.98L13.96 27.13v-8.92L31.35.04h30.29L32.83 28.85l3.84 4.58z"/><path d="M21.03 40.65l3.76 4.3-4.45 4.31-3.7-4.23 4.39-4.38zm15.64-7.22l-4.45 4.32-3.78-4.51 4.39-4.39 3.84 4.58zM55.46 6.22l-5.45 5.45h-8.74l5.45-5.45h8.74z" fill="#334155"/><path class="cls-1" d="M87.75 32.36L76.87 18.07v14.29H69V0h7.88v14.2L87.65 0h9.27L84.38 15.86l13 16.5zM109 6.31v6.55h10.56v6.08H109V26h11.94v6.32h-19.83V0h19.82v6.31zM156.42 0l-11.48 32.36h-9.86L123.6 0h8.4l8 24.43L148.08 0zm11.15 0v32.36h-7.88V0zm34.66 32.36h-7.88l-13.18-20v20h-7.88V0h7.88l13.18 20.05V0h7.88zM71.59 43.13V50h7.51v2.21h-7.51v7.1H80v2.22H68.9V40.91H80v2.22zM87 61a6 6 0 01-2.53-2 5.17 5.17 0 01-1-3h2.87a3.78 3.78 0 001.2 2.44 4.3 4.3 0 003.06 1 4.48 4.48 0 003-1 3.11 3.11 0 001.11-2.47 2.81 2.81 0 00-.65-1.92A4.12 4.12 0 0092.47 53c-.65-.25-1.53-.53-2.63-.83a23.39 23.39 0 01-3.27-1.06 5.27 5.27 0 01-2.1-1.67 4.92 4.92 0 01-.87-3.06 5.24 5.24 0 01.86-3 5.51 5.51 0 012.41-2 8.35 8.35 0 013.56-.71 7.45 7.45 0 014.75 1.45A5.32 5.32 0 0197.26 46h-3a3.19 3.19 0 00-1.25-2.08 4.4 4.4 0 00-2.89-.9 4.22 4.22 0 00-2.76.87 3 3 0 00-1.06 2.44 2.6 2.6 0 00.7 1.8 3.91 3.91 0 001.56 1.08 26 26 0 002.62.84 25.63 25.63 0 013.28 1.11 5.5 5.5 0 012.13 1.69 4.85 4.85 0 01.89 3.09 5.36 5.36 0 01-.8 2.84 5.84 5.84 0 01-2.36 2.16 7.86 7.86 0 01-3.7.83A8.68 8.68 0 0187 61zm26.46-9.75c-1.17 1.14-3 1.7-5.37 1.7h-4v8.61h-2.69V40.94h6.65a7.56 7.56 0 015.31 1.69 6.08 6.08 0 01.06 8.62zm-2.06-1.49a3.59 3.59 0 001.07-2.76q0-3.82-4.38-3.82h-4v7.58h4a4.78 4.78 0 003.31-1zm9.85-8.82v20.62h-2.69V40.94zm20.8 20.62h-2.69l-10.83-16.42v16.42h-2.69V40.91h2.69l10.83 16.39V40.91h2.69zm8.69-1.14a9.9 9.9 0 01-3.74-3.75 11.45 11.45 0 010-10.86 9.93 9.93 0 013.74-3.76 11 11 0 0110.51 0 9.83 9.83 0 013.75 3.74 11.58 11.58 0 010 10.89 9.69 9.69 0 01-3.72 3.74 10.9 10.9 0 01-10.51 0zm9.13-2a7.11 7.11 0 002.72-2.87 10 10 0 000-8.66 7.1 7.1 0 00-2.71-2.85 8 8 0 00-7.8 0 7.1 7.1 0 00-2.71 2.85 10 10 0 000 8.66 7.11 7.11 0 002.72 2.87 8.07 8.07 0 007.78 0zm12.29.8h10.06v2.34H169v-2.13l10-16.15h-9.88v-2.34h13.08v2.13zM198.07 57h-9l-1.66 4.58h-2.84L192 41.06h3.1l7.43 20.5h-2.84zm-.77-2.19l-3.72-10.41-3.73 10.41z"/></g></g></svg>