<svg width="31" height="30" fill="none" xmlns="http://www.w3.org/2000/svg"><g clip-path="url(#clip0)"><path d="M29.524 19.688h-1.869V15a.936.936 0 00-.934-.938H16.443v-3.75h1.868c.516 0 .935-.42.935-.937V3.75a.936.936 0 00-.935-.938h-5.606a.936.936 0 00-.934.938v5.625c0 .518.418.938.934.938h1.869v3.75H4.296A.936.936 0 003.36 15v4.688H1.492a.936.936 0 00-.934.937v5.625c0 .517.419.938.934.938H7.1c.516 0 .934-.42.934-.938v-5.625a.936.936 0 00-.934-.938H5.23v-3.75h9.344v3.75h-1.869a.936.936 0 00-.934.938v5.625c0 .517.418.938.934.938h5.606c.516 0 .935-.42.935-.938v-5.625a.936.936 0 00-.935-.938h-1.868v-3.75h9.343v3.75h-1.868a.936.936 0 00-.935.938v5.625c0 .517.419.938.935.938h5.606c.516 0 .934-.42.934-.938v-5.625a.936.936 0 00-.934-.938z" fill="#1d4ed8"/></g><defs><clipPath id="clip0"><path fill="#fff" transform="translate(.558)" d="M0 0h29.9v30H0z"/></clipPath></defs></svg>