<svg width="31" height="30" fill="none" xmlns="http://www.w3.org/2000/svg"><g clip-path="url(#clip0)" fill="#1d4ed8"><path d="M30.403 4.526a.88.88 0 00-.59-.71.873.873 0 00-.896.213l-1.24 1.243c-.661.665-1.815.665-2.477 0a1.76 1.76 0 010-2.485l1.238-1.243a.88.88 0 00-.496-1.492 5.26 5.26 0 00-4.459 1.491 5.307 5.307 0 00-1.36 5.095L7.17 19.632a5.287 5.287 0 00-5.077 1.366 5.317 5.317 0 00-1.487 4.474.875.875 0 001.487.498l1.238-1.244c.662-.664 1.817-.664 2.479 0a1.76 1.76 0 010 2.486l-1.24 1.243a.88.88 0 00.497 1.492 5.228 5.228 0 004.459-1.491 5.307 5.307 0 001.36-5.095L23.84 10.366v.001a5.277 5.277 0 005.078-1.366 5.316 5.316 0 001.486-4.475z"/><path d="M25.195 19.453c-.414 0-.841.063-1.343.196l-3.395-3.406-3.717 3.73 3.395 3.405a5.213 5.213 0 00-.195 1.349c0 2.908 2.357 5.273 5.255 5.273 2.899 0 5.256-2.365 5.256-5.273 0-2.908-2.357-5.274-5.256-5.274zm2.875 5.098l-.521 1.95a.88.88 0 01-.62.621l-1.943.523a.873.873 0 01-.846-.228l-1.423-1.427a.88.88 0 01-.226-.849l.52-1.95a.88.88 0 01.62-.621l1.944-.523a.87.87 0 01.846.227l1.422 1.428a.88.88 0 01.227.849zM10.888 6.588a5.306 5.306 0 00-1.361-5.095c-1.986-1.99-5.45-1.99-7.433 0a5.293 5.293 0 000 7.458 5.269 5.269 0 005.078 1.366l3.38 3.44 3.716-3.729-3.38-3.44zm-2.291-1.63l-.521 1.95a.88.88 0 01-.62.622l-1.943.523a.873.873 0 01-.846-.228L3.244 6.398a.88.88 0 01-.226-.85l.52-1.95a.88.88 0 01.62-.62l1.944-.523a.87.87 0 01.846.227L8.37 4.11a.88.88 0 01.227.848z"/></g><defs><clipPath id="clip0"><path fill="#fff" transform="translate(.552)" d="M0 0h29.9v30H0z"/></clipPath></defs></svg>