<svg width="31" height="30" fill="none" xmlns="http://www.w3.org/2000/svg"><g clip-path="url(#clip0)" fill="#1d4ed8"><path d="M8.961 22.5a.94.94 0 01-.66-1.601l3.387-3.399L8.3 14.1a.94.94 0 010-1.326.933.933 0 011.321 0l4.05 4.062a.94.94 0 010 1.327l-4.05 4.062a.926.926 0 01-.66.275zm13.081 0h-5.606a.936.936 0 01-.934-.938c0-.517.418-.937.934-.937h5.606c.516 0 .935.42.935.938a.936.936 0 01-.935.937z"/><path d="M27.026 28.75H3.978a3.435 3.435 0 01-3.426-3.437V4.688A3.435 3.435 0 013.978 1.25h23.048a3.435 3.435 0 013.426 3.438v20.625a3.435 3.435 0 01-3.426 3.437zM3.978 3.125c-.859 0-1.558.701-1.558 1.563v20.625c0 .86.7 1.562 1.558 1.562h23.048c.858 0 1.557-.701 1.557-1.562V4.688c0-.862-.699-1.563-1.557-1.563H3.978z"/><path d="M29.517 7.5H1.486a.936.936 0 01-.934-.938c0-.517.418-.937.934-.937h28.031c.516 0 .935.42.935.938a.936.936 0 01-.935.937z"/></g><defs><clipPath id="clip0"><path fill="#fff" transform="translate(.552)" d="M0 0h29.9v30H0z"/></clipPath></defs></svg>